<svg width="20" height="20" viewBox="0 0 20 20" fill="none" xmlns="http://www.w3.org/2000/svg">
<path d="M4.01823 13.2542L5.47526 4.99096C5.50255 4.83589 5.56012 4.68772 5.64468 4.55491C5.72924 4.42209 5.83914 4.30724 5.9681 4.21691C6.09706 4.12657 6.24255 4.06253 6.39626 4.02844C6.54998 3.99435 6.7089 3.99087 6.86396 4.01821L13.9471 5.26786C14.2602 5.32311 14.5385 5.50045 14.7208 5.76088C14.9031 6.02131 14.9745 6.34349 14.9193 6.65656L13.4622 14.9198C13.435 15.0749 13.3774 15.2231 13.2928 15.3559C13.2083 15.4887 13.0984 15.6036 12.9694 15.6939C12.8404 15.7842 12.6949 15.8483 12.5412 15.8824C12.3875 15.9165 12.2286 15.9199 12.0735 15.8926L4.99038 14.6429C4.67732 14.5877 4.39902 14.4104 4.21671 14.1499C4.0344 13.8895 3.96301 13.5673 4.01823 13.2542Z" stroke="#191B23" stroke-width="0.719224"/>
<path d="M7.62938 6.58789L12.3517 7.42039M7.21283 8.94874L11.9351 9.78185M6.79688 11.3096L9.74809 11.8304" stroke="#191B23" stroke-width="0.719224" stroke-linecap="round"/>
</svg>
