<svg width="16" height="15" viewBox="0 0 16 15" fill="none" xmlns="http://www.w3.org/2000/svg">
<path d="M8.0625 0.640625C8.04785 0.640625 8.02734 0.640625 8.00977 0.644141C7.875 0.669043 7.71387 0.793555 7.6084 1.07803C7.49707 1.36221 7.47363 1.76738 7.57031 2.20127C7.66992 2.62988 7.875 2.99932 8.10352 3.2249C8.32617 3.45049 8.52832 3.51201 8.66309 3.48857C8.80371 3.46807 8.95898 3.33916 9.06445 3.05791C9.17578 2.77549 9.20508 2.36475 9.10547 1.93438C9.00293 1.50078 8.80078 1.13486 8.57227 0.910742C8.37891 0.711523 8.2002 0.640625 8.0625 0.640625ZM11.4434 4.43486C11.1211 4.44365 10.7139 4.52861 10.3184 4.69561C9.86133 4.89482 9.50977 5.16143 9.31641 5.41338C9.12305 5.65654 9.10547 5.84111 9.16699 5.94951C9.23145 6.05791 9.41016 6.16045 9.75293 6.1751C10.0957 6.19561 10.5586 6.11064 11.0127 5.91729C11.4668 5.721 11.8242 5.45147 12.0176 5.20537C12.2109 4.96221 12.2256 4.77178 12.1641 4.66338C12.1025 4.55205 11.9209 4.45537 11.5781 4.44365C11.5312 4.43486 11.4902 4.43486 11.4434 4.43486ZM7.4502 7.15654C7.25684 7.15947 7.08105 7.18291 6.92285 7.22393C6.57715 7.31182 6.37793 7.47002 6.31348 7.66045C6.24023 7.85088 6.31348 8.07939 6.54199 8.32549C6.78223 8.56572 7.17773 8.79717 7.66992 8.92607C8.15918 9.05498 8.63086 9.05205 8.98242 8.9583C9.33691 8.86748 9.53613 8.70635 9.60059 8.51885C9.66797 8.32842 9.60059 8.10283 9.36328 7.85381C9.13184 7.61357 8.73633 7.38213 8.24414 7.25615C7.96582 7.18291 7.69336 7.15361 7.4502 7.15654ZM12.1582 8.85869L10.3477 9.71709C10.4707 9.72295 10.7783 9.73174 10.7783 9.73174L10.9717 9.98662L12.5742 9.15166L12.1582 8.85869ZM10.5615 8.86162L8.87988 9.6585C9.04102 9.66729 9.42188 9.67314 9.57422 9.68193L11.0332 8.99053L10.5615 8.86162ZM13.2744 9.17803L11.209 10.2737L11.6338 10.8216L13.8164 9.51494L13.2744 9.17803ZM5.10645 9.44463C5.01773 9.44447 4.92929 9.45429 4.84277 9.47393C2.74805 9.95732 1.51172 9.99834 1.14551 9.99834H1.03125V13.1478C1.03125 13.1478 1.37109 13.0979 1.93652 13.095C3.0293 13.095 4.9541 13.2825 6.8291 14.3782C6.92871 14.4397 7.14258 14.4632 7.40918 14.4632C8.12109 14.4632 9.20215 14.2933 9.45117 14.1995C11.959 13.2591 14.9766 10.678 14.9766 10.678L14.0244 9.846C14.0244 9.846 11.6865 11.3372 11.3906 11.4808C8.72168 12.7903 6.55957 11.9729 6.55957 11.9729C6.55957 11.9729 10.0723 12.0608 11.2002 11.1731L10.5381 10.1771C10.5381 10.1771 8.1123 10.1097 7.24805 9.99541C6.79688 9.93682 5.82129 9.44463 5.10645 9.44463Z" fill="#25262D" fill-opacity="0.6"/>
</svg>
