<svg width="25" height="25" viewBox="0 0 25 25" fill="none" xmlns="http://www.w3.org/2000/svg">
<path d="M12.5 8.33594V12.5026L15.1042 15.1068" stroke="black" stroke-width="1.5" stroke-linecap="round" stroke-linejoin="round"/>
<path d="M4.51875 7.15808L3.7375 7.1612C3.73832 7.36714 3.82042 7.56443 3.96595 7.71015C4.11147 7.85587 4.30865 7.93823 4.51458 7.93933L4.51875 7.15808ZM7.16667 7.95183C7.26926 7.95231 7.37095 7.93257 7.46592 7.89375C7.56088 7.85494 7.64728 7.79779 7.72016 7.72558C7.79305 7.65338 7.85099 7.56752 7.8907 7.47292C7.9304 7.37832 7.95108 7.27682 7.95156 7.17422C7.95204 7.07163 7.93231 6.96994 7.89349 6.87498C7.85467 6.78001 7.79752 6.69361 7.72532 6.62073C7.65311 6.54785 7.56725 6.4899 7.47265 6.45019C7.37805 6.41049 7.27655 6.38981 7.17396 6.38933L7.16667 7.95183ZM5.28646 4.50183C5.28535 4.29463 5.20198 4.09635 5.05469 3.95062C4.9074 3.80489 4.70824 3.72364 4.50104 3.72475C4.29384 3.72585 4.09557 3.80922 3.94983 3.95651C3.8041 4.10381 3.72285 4.30296 3.72396 4.51016L5.28646 4.50183ZM3.90625 12.5008C3.90625 12.2936 3.82394 12.0949 3.67743 11.9484C3.53091 11.8018 3.3322 11.7195 3.125 11.7195C2.9178 11.7195 2.71909 11.8018 2.57257 11.9484C2.42606 12.0949 2.34375 12.2936 2.34375 12.5008H3.90625ZM17.5781 21.2977C17.6707 21.2484 17.7524 21.1809 17.8183 21.0994C17.8843 21.0179 17.9331 20.9239 17.962 20.8231C17.9909 20.7222 17.9991 20.6166 17.9863 20.5126C17.9735 20.4085 17.9398 20.308 17.8874 20.2172C17.8349 20.1264 17.7647 20.0471 17.6809 19.984C17.5971 19.9209 17.5015 19.8754 17.3998 19.85C17.298 19.8247 17.1922 19.8201 17.0886 19.8365C16.985 19.8529 16.8858 19.89 16.7969 19.9456L17.5781 21.2977ZM19.9448 16.7977C19.8892 16.8866 19.8521 16.9858 19.8357 17.0894C19.8193 17.193 19.8239 17.2988 19.8492 17.4005C19.8746 17.5023 19.9201 17.5979 19.9832 17.6817C20.0463 17.7655 20.1256 17.8357 20.2164 17.8881C20.3072 17.9406 20.4077 17.9743 20.5118 17.9871C20.6159 17.9999 20.7215 17.9917 20.8223 17.9628C20.9231 17.9339 21.0171 17.8851 21.0986 17.8191C21.1802 17.7532 21.2476 17.6715 21.2969 17.5789L19.9448 16.7977ZM5.35417 5.28204C5.20692 5.42791 5.12364 5.6263 5.12267 5.83356C5.12169 6.04083 5.20309 6.23999 5.34896 6.38725C5.49483 6.5345 5.69322 6.61777 5.90048 6.61875C6.10775 6.61972 6.30692 6.53832 6.45417 6.39245L5.35417 5.28204ZM19.6479 5.35183C15.6687 1.37266 9.23854 1.33308 5.28542 5.2862L6.38958 6.38933C9.72292 3.05704 15.1635 3.07683 18.5437 6.45704L19.6479 5.35183ZM5.28542 5.2862L3.96667 6.60495L5.07083 7.70912L6.39062 6.39141L5.28542 5.2862ZM4.51458 7.93933L7.16667 7.95183L7.17396 6.38933L4.52292 6.37683L4.51458 7.93933ZM5.3 7.15391L5.28646 4.50183L3.72396 4.51016L3.7375 7.1612L5.3 7.15391ZM12.5 3.90704C14.7792 3.90704 16.9651 4.81245 18.5767 6.42409C20.1883 8.03573 21.0938 10.2216 21.0938 12.5008H22.6562C22.6562 9.80718 21.5862 7.2239 19.6816 5.31923C17.7769 3.41457 15.1936 2.34454 12.5 2.34454V3.90704ZM12.5 21.0945C10.2208 21.0945 8.03494 20.1891 6.4233 18.5775C4.81166 16.9658 3.90625 14.78 3.90625 12.5008H2.34375C2.34375 15.1944 3.41378 17.7777 5.31845 19.6823C7.22311 21.587 9.80639 22.657 12.5 22.657V21.0945ZM16.7969 19.9456C15.491 20.7009 14.0086 21.0973 12.5 21.0945V22.657C14.349 22.657 16.0833 22.1622 17.5781 21.2977L16.7969 19.9456ZM21.0938 12.5008C21.0965 14.0094 20.7001 15.4918 19.9448 16.7977L21.2969 17.5789C22.1897 16.0356 22.6587 14.2837 22.6562 12.5008H21.0938ZM6.45417 6.39245C8.06136 4.79678 10.2352 3.90378 12.5 3.90704V2.34454C9.82329 2.34109 7.2541 3.39656 5.35417 5.28204L6.45417 6.39245Z" fill="black"/>
</svg>
