<svg width="16" height="15" viewBox="0 0 16 15" fill="none" xmlns="http://www.w3.org/2000/svg">
<path d="M7.66331 2.39861C7.7512 2.31082 7.87034 2.26152 7.99456 2.26152C8.11878 2.26152 8.23792 2.31082 8.32581 2.39861L13.7571 7.82986C13.8 7.87591 13.8517 7.91285 13.9092 7.93847C13.9667 7.96409 14.0288 7.97787 14.0917 7.97898C14.1547 7.98009 14.2172 7.96851 14.2756 7.94493C14.3339 7.92136 14.3869 7.88627 14.4315 7.84175C14.476 7.79724 14.5111 7.74422 14.5346 7.68585C14.5582 7.62749 14.5698 7.56497 14.5687 7.50203C14.5676 7.43909 14.5538 7.37702 14.5282 7.31952C14.5025 7.26202 14.4656 7.21027 14.4196 7.16736L8.98893 1.73611C8.85835 1.60552 8.70332 1.50194 8.53271 1.43126C8.36209 1.36059 8.17923 1.32422 7.99456 1.32422C7.80988 1.32422 7.62702 1.36059 7.4564 1.43126C7.28579 1.50194 7.13076 1.60552 7.00018 1.73611L1.56893 7.16736C1.48359 7.2558 1.43639 7.37423 1.43752 7.49714C1.43865 7.62004 1.488 7.73759 1.57495 7.82446C1.6619 7.91133 1.77949 7.96057 1.9024 7.96158C2.02531 7.96259 2.14369 7.91529 2.23206 7.82986L7.66331 2.39861Z" fill="#05322E"/>
<path d="M8 3.39453L13.0994 8.49391C13.1181 8.51266 13.1369 8.53016 13.1562 8.54766V12.4214C13.1562 13.0683 12.6313 13.5933 11.9844 13.5933H9.875C9.75068 13.5933 9.63145 13.5439 9.54354 13.456C9.45564 13.3681 9.40625 13.2489 9.40625 13.1245V10.312C9.40625 10.1877 9.35686 10.0685 9.26896 9.98058C9.18105 9.89267 9.06182 9.84328 8.9375 9.84328H7.0625C6.93818 9.84328 6.81895 9.89267 6.73104 9.98058C6.64314 10.0685 6.59375 10.1877 6.59375 10.312V13.1245C6.59375 13.2489 6.54436 13.3681 6.45646 13.456C6.36855 13.5439 6.24932 13.5933 6.125 13.5933H4.01562C3.70482 13.5933 3.40675 13.4698 3.18698 13.25C2.96722 13.0303 2.84375 12.7322 2.84375 12.4214V8.54766C2.86319 8.53026 2.88216 8.51234 2.90063 8.49391L8 3.39453Z" fill="#05322E"/>
</svg>
