<svg width="25" height="25" viewBox="0 0 25 25" fill="none" xmlns="http://www.w3.org/2000/svg">
<path fill-rule="evenodd" clip-rule="evenodd" d="M20.5677 12.5052C20.5677 12.298 20.4854 12.0993 20.3389 11.9528C20.1924 11.8063 19.9937 11.724 19.7865 11.724H5.20313C4.99592 11.724 4.79721 11.8063 4.6507 11.9528C4.50418 12.0993 4.42188 12.298 4.42188 12.5052C4.42188 12.7124 4.50418 12.9111 4.6507 13.0576C4.79721 13.2041 4.99592 13.2865 5.20313 13.2865H19.7865C19.9937 13.2865 20.1924 13.2041 20.3389 13.0576C20.4854 12.9111 20.5677 12.7124 20.5677 12.5052ZM20.5677 7.29688C20.5677 7.08967 20.4854 6.89096 20.3389 6.74445C20.1924 6.59793 19.9937 6.51562 19.7865 6.51562H5.20313C4.99592 6.51562 4.79721 6.59793 4.6507 6.74445C4.50418 6.89096 4.42188 7.08967 4.42188 7.29688C4.42188 7.50408 4.50418 7.70279 4.6507 7.8493C4.79721 7.99582 4.99592 8.07813 5.20313 8.07813H19.7865C19.9937 8.07813 20.1924 7.99582 20.3389 7.8493C20.4854 7.70279 20.5677 7.50408 20.5677 7.29688ZM20.5677 17.7135C20.5677 17.5063 20.4854 17.3076 20.3389 17.1611C20.1924 17.0146 19.9937 16.9323 19.7865 16.9323H5.20313C4.99592 16.9323 4.79721 17.0146 4.6507 17.1611C4.50418 17.3076 4.42188 17.5063 4.42188 17.7135C4.42188 17.9207 4.50418 18.1195 4.6507 18.266C4.79721 18.4125 4.99592 18.4948 5.20313 18.4948H19.7865C19.9937 18.4948 20.1924 18.4125 20.3389 18.266C20.4854 18.1195 20.5677 17.9207 20.5677 17.7135Z" fill="black"/>
</svg>
