<svg width="20" height="20" viewBox="0 0 20 20" fill="none" xmlns="http://www.w3.org/2000/svg">
<path d="M7.5 8.33464L10.215 10.3713C10.3832 10.4975 10.5929 10.5554 10.802 10.5334C11.0111 10.5115 11.2042 10.4113 11.3425 10.253L16.6667 4.16797" stroke="#E90A32" stroke-width="1.5" stroke-linecap="round"/>
<path d="M17.5 9.99987C17.5 11.567 17.0092 13.0947 16.0964 14.3685C15.1836 15.6424 13.8947 16.5983 12.4108 17.102C10.9268 17.6057 9.32237 17.6319 7.82275 17.177C6.32314 16.7221 5.00369 15.8088 4.04973 14.5656C3.09577 13.3223 2.55522 11.8114 2.50401 10.2451C2.45279 8.67884 2.89348 7.13587 3.76419 5.83291C4.63489 4.52996 5.89186 3.53247 7.35855 2.98055C8.82525 2.42862 10.428 2.34999 11.9417 2.7557" stroke="#E90A32" stroke-width="1.5" stroke-linecap="round"/>
</svg>
