<svg width="16" height="15" viewBox="0 0 16 15" fill="none" xmlns="http://www.w3.org/2000/svg">
<path d="M4.25 2.5V5H11.75V2.5H13.0044C13.3469 2.5 13.625 2.77813 13.625 3.12063V13.1294C13.6248 13.2939 13.5594 13.4517 13.443 13.568C13.3267 13.6844 13.1689 13.7498 13.0044 13.75H2.99563C2.83103 13.75 2.67317 13.6846 2.55678 13.5682C2.44039 13.4518 2.375 13.294 2.375 13.1294V3.12063C2.375 2.77813 2.65313 2.5 2.99563 2.5H4.25ZM6.125 10.625H4.875V11.875H6.125V10.625ZM6.125 8.75H4.875V10H6.125V8.75ZM6.125 6.875H4.875V8.125H6.125V6.875ZM10.5 1.25V3.75H5.5V1.25H10.5Z" fill="#25262D" fill-opacity="0.6"/>
</svg>
